<?xml version="1.0" encoding="utf-8" standalone="no"?>
<!DOCTYPE svg PUBLIC "-//W3C//DTD SVG 1.1//EN"
  "http://www.w3.org/Graphics/SVG/1.1/DTD/svg11.dtd">
<svg xmlns:xlink="http://www.w3.org/1999/xlink" width="697.444125pt" height="560.532812pt" viewBox="0 0 697.444125 560.532812" xmlns="http://www.w3.org/2000/svg" version="1.1">
 <metadata>
  <rdf:RDF xmlns:dc="http://purl.org/dc/elements/1.1/" xmlns:cc="http://creativecommons.org/ns#" xmlns:rdf="http://www.w3.org/1999/02/22-rdf-syntax-ns#">
   <cc:Work>
    <dc:type rdf:resource="http://purl.org/dc/dcmitype/StillImage"/>
    <dc:date>2025-10-13T02:23:42.254767</dc:date>
    <dc:format>image/svg+xml</dc:format>
    <dc:creator>
     <cc:Agent>
      <dc:title>Matplotlib v3.10.6, https://matplotlib.org/</dc:title>
     </cc:Agent>
    </dc:creator>
   </cc:Work>
  </rdf:RDF>
 </metadata>
 <defs>
  <style type="text/css">*{stroke-linejoin: round; stroke-linecap: butt}</style>
 </defs>
 <g id="figure_1">
  <g id="patch_1">
   <path d="M 0 560.532812 
L 697.444125 560.532812 
L 697.444125 0 
L 0 0 
z
" style="fill: #ffffff"/>
  </g>
  <g id="axes_1">
   <g id="patch_2">
    <path d="M 544.595625 300.585312 
C 544.595625 267.394815 538.057821 234.527053 525.356367 203.863032 
C 512.654914 173.19901 494.036822 145.335067 470.567596 121.865841 
C 447.09837 98.396615 419.234427 79.778524 388.570406 67.07707 
C 357.906384 54.375617 325.038623 47.837812 291.848125 47.837812 
C 258.657627 47.837812 225.789866 54.375617 195.125844 67.07707 
C 164.461823 79.778524 136.59788 98.396615 113.128654 121.865841 
C 89.659428 145.335067 71.041336 173.19901 58.339883 203.863032 
C 45.638429 234.527053 39.100625 267.394815 39.100625 300.585312 
C 39.100625 333.77581 45.638429 366.643572 58.339883 397.307593 
C 71.041336 427.971615 89.659428 455.835558 113.128654 479.304784 
C 136.59788 502.77401 164.461823 521.392101 195.125844 534.093555 
C 225.789866 546.795008 258.657627 553.332812 291.848125 553.332812 
C 325.038623 553.332812 357.906384 546.795008 388.570406 534.093555 
C 419.234427 521.392101 447.09837 502.77401 470.567596 479.304784 
C 494.036822 455.835558 512.654914 427.971615 525.356367 397.307593 
C 538.057821 366.643572 544.595625 333.77581 544.595625 300.585312 
M 291.848125 300.585312 
C 291.848125 300.585312 291.848125 300.585312 291.848125 300.585312 
C 291.848125 300.585312 291.848125 300.585312 291.848125 300.585312 
C 291.848125 300.585312 291.848125 300.585312 291.848125 300.585312 
C 291.848125 300.585312 291.848125 300.585312 291.848125 300.585312 
C 291.848125 300.585312 291.848125 300.585312 291.848125 300.585312 
C 291.848125 300.585312 291.848125 300.585312 291.848125 300.585312 
C 291.848125 300.585312 291.848125 300.585312 291.848125 300.585312 
C 291.848125 300.585312 291.848125 300.585312 291.848125 300.585312 
C 291.848125 300.585312 291.848125 300.585312 291.848125 300.585312 
C 291.848125 300.585312 291.848125 300.585312 291.848125 300.585312 
C 291.848125 300.585312 291.848125 300.585312 291.848125 300.585312 
C 291.848125 300.585312 291.848125 300.585312 291.848125 300.585312 
C 291.848125 300.585312 291.848125 300.585312 291.848125 300.585312 
C 291.848125 300.585312 291.848125 300.585312 291.848125 300.585312 
C 291.848125 300.585312 291.848125 300.585312 291.848125 300.585312 
C 291.848125 300.585312 291.848125 300.585312 291.848125 300.585312 
z
" style="fill: #ffffff"/>
   </g>
   <g id="patch_3">
    <path d="M 503.428638 300.585312 
L 339.332123 218.340615 
L 260.820863 246.844519 
L 89.618152 300.585312 
L 200.14968 459.411678 
L 339.057501 382.35435 
z
" clip-path="url(#p4807561137)" style="fill: #e74c3c; opacity: 0.25; stroke: #e74c3c; stroke-linejoin: miter"/>
   </g>
   <g id="patch_4">
    <path d="M 503.336269 300.585312 
L 344.93942 208.628492 
L 251.875368 231.350466 
L 133.794344 300.585312 
L 187.98995 480.472949 
L 338.943117 382.156232 
z
" clip-path="url(#p4807561137)" style="fill: #3498db; opacity: 0.25; stroke: #3498db; stroke-linejoin: miter"/>
   </g>
   <g id="matplotlib.axis_1">
    <g id="xtick_1">
     <g id="line2d_1">
      <path d="M 291.848125 300.585312 
L 544.595625 300.585312 
" clip-path="url(#p4807561137)" style="fill: none; stroke: #b0b0b0; stroke-width: 0.8; stroke-linecap: square"/>
     </g>
     <g id="text_1">
      <text style="font-size: 12px; font-family: 'DejaVu Sans'; text-anchor: middle" x="558.595625" y="303.896562" transform="rotate(-0 558.595625 303.896562)">AUC-ROC</text>
     </g>
    </g>
    <g id="xtick_2">
     <g id="line2d_2">
      <path d="M 291.848125 300.585312 
L 418.221875 81.699557 
" clip-path="url(#p4807561137)" style="fill: none; stroke: #b0b0b0; stroke-width: 0.8; stroke-linecap: square"/>
     </g>
     <g id="text_2">
      <text style="font-size: 12px; font-family: 'DejaVu Sans'; text-anchor: middle" x="425.221875" y="72.886451" transform="rotate(-0 425.221875 72.886451)">F1-Score</text>
     </g>
    </g>
    <g id="xtick_3">
     <g id="line2d_3">
      <path d="M 291.848125 300.585312 
L 165.474375 81.699557 
" clip-path="url(#p4807561137)" style="fill: none; stroke: #b0b0b0; stroke-width: 0.8; stroke-linecap: square"/>
     </g>
     <g id="text_3">
      <text style="font-size: 12px; font-family: 'DejaVu Sans'; text-anchor: middle" x="158.474375" y="72.886451" transform="rotate(-0 158.474375 72.886451)">Precision</text>
     </g>
    </g>
    <g id="xtick_4">
     <g id="line2d_4">
      <path d="M 291.848125 300.585312 
L 39.100625 300.585312 
" clip-path="url(#p4807561137)" style="fill: none; stroke: #b0b0b0; stroke-width: 0.8; stroke-linecap: square"/>
     </g>
     <g id="text_4">
      <text style="font-size: 12px; font-family: 'DejaVu Sans'; text-anchor: middle" x="25.100625" y="303.896562" transform="rotate(-0 25.100625 303.896562)">Recall</text>
     </g>
    </g>
    <g id="xtick_5">
     <g id="line2d_5">
      <path d="M 291.848125 300.585312 
L 165.474375 519.471068 
" clip-path="url(#p4807561137)" style="fill: none; stroke: #b0b0b0; stroke-width: 0.8; stroke-linecap: square"/>
     </g>
     <g id="text_5">
      <text style="font-size: 12px; font-family: 'DejaVu Sans'; text-anchor: middle" x="158.474375" y="534.906674" transform="rotate(-0 158.474375 534.906674)">Accuracy</text>
     </g>
    </g>
    <g id="xtick_6">
     <g id="line2d_6">
      <path d="M 291.848125 300.585312 
L 418.221875 519.471068 
" clip-path="url(#p4807561137)" style="fill: none; stroke: #b0b0b0; stroke-width: 0.8; stroke-linecap: square"/>
     </g>
     <g id="text_6">
      <text style="font-size: 12px; font-family: 'DejaVu Sans'; text-anchor: middle" x="425.221875" y="534.906674" transform="rotate(-0 425.221875 534.906674)">AUC-PR</text>
     </g>
    </g>
   </g>
   <g id="matplotlib.axis_2">
    <g id="ytick_1">
     <g id="line2d_7">
      <path d="M 342.397625 300.585312 
C 342.397625 293.947213 341.090064 287.373661 338.549773 281.240856 
C 336.009483 275.108052 332.285864 269.535263 327.592019 264.841418 
C 322.898174 260.147573 317.325385 256.423955 311.192581 253.883664 
C 305.059777 251.343373 298.486225 250.035812 291.848125 250.035812 
C 285.210025 250.035812 278.636473 251.343373 272.503669 253.883664 
C 266.370865 256.423955 260.798076 260.147573 256.104231 264.841418 
C 251.410386 269.535263 247.686767 275.108052 245.146477 281.240856 
C 242.606186 287.373661 241.298625 293.947213 241.298625 300.585312 
C 241.298625 307.223412 242.606186 313.796964 245.146477 319.929769 
C 247.686767 326.062573 251.410386 331.635362 256.104231 336.329207 
C 260.798076 341.023052 266.370865 344.74667 272.503669 347.286961 
C 278.636473 349.827252 285.210025 351.134812 291.848125 351.134812 
C 298.486225 351.134812 305.059777 349.827252 311.192581 347.286961 
C 317.325385 344.74667 322.898174 341.023052 327.592019 336.329207 
C 332.285864 331.635362 336.009483 326.062573 338.549773 319.929769 
C 341.090064 313.796964 342.397625 307.223412 342.397625 300.585312 
" clip-path="url(#p4807561137)" style="fill: none; stroke: #b0b0b0; stroke-width: 0.8; stroke-linecap: square"/>
     </g>
     <g id="text_7">
      <text style="font-size: 10px; font-family: 'DejaVu Sans'; text-anchor: start" x="338.549773" y="279.161169" transform="rotate(-0 338.549773 279.161169)">0.2</text>
     </g>
    </g>
    <g id="ytick_2">
     <g id="line2d_8">
      <path d="M 392.947125 300.585312 
C 392.947125 287.309113 390.332003 274.162009 385.251422 261.8964 
C 380.17084 249.630792 372.723604 238.485214 363.335913 229.097524 
C 353.948223 219.709834 342.802646 212.262597 330.537037 207.182016 
C 318.271429 202.101434 305.124324 199.486312 291.848125 199.486312 
C 278.571926 199.486312 265.424821 202.101434 253.159213 207.182016 
C 240.893604 212.262597 229.748027 219.709834 220.360337 229.097524 
C 210.972646 238.485214 203.52541 249.630792 198.444828 261.8964 
C 193.364247 274.162009 190.749125 287.309113 190.749125 300.585312 
C 190.749125 313.861512 193.364247 327.008616 198.444828 339.274225 
C 203.52541 351.539833 210.972646 362.685411 220.360337 372.073101 
C 229.748027 381.460791 240.893604 388.908028 253.159213 393.988609 
C 265.424821 399.069191 278.571926 401.684312 291.848125 401.684312 
C 305.124324 401.684312 318.271429 399.069191 330.537037 393.988609 
C 342.802646 388.908028 353.948223 381.460791 363.335913 372.073101 
C 372.723604 362.685411 380.17084 351.539833 385.251422 339.274225 
C 390.332003 327.008616 392.947125 313.861512 392.947125 300.585312 
" clip-path="url(#p4807561137)" style="fill: none; stroke: #b0b0b0; stroke-width: 0.8; stroke-linecap: square"/>
     </g>
     <g id="text_8">
      <text style="font-size: 10px; font-family: 'DejaVu Sans'; text-anchor: start" x="385.251422" y="259.816713" transform="rotate(-0 385.251422 259.816713)">0.4</text>
     </g>
    </g>
    <g id="ytick_3">
     <g id="line2d_9">
      <path d="M 443.496625 300.585312 
C 443.496625 280.671014 439.573942 260.950357 431.95307 242.551944 
C 424.332198 224.153531 413.161343 207.435165 399.079808 193.35363 
C 384.998272 179.272094 368.279906 168.101239 349.881493 160.480367 
C 331.483081 152.859495 311.762424 148.936812 291.848125 148.936812 
C 271.933826 148.936812 252.213169 152.859495 233.814757 160.480367 
C 215.416344 168.101239 198.697978 179.272094 184.616442 193.35363 
C 170.534907 207.435165 159.364052 224.153531 151.74318 242.551944 
C 144.122308 260.950357 140.199625 280.671014 140.199625 300.585312 
C 140.199625 320.499611 144.122308 340.220268 151.74318 358.618681 
C 159.364052 377.017094 170.534907 393.73546 184.616442 407.816995 
C 198.697978 421.898531 215.416344 433.069386 233.814757 440.690258 
C 252.213169 448.31113 271.933826 452.233812 291.848125 452.233812 
C 311.762424 452.233812 331.483081 448.31113 349.881493 440.690258 
C 368.279906 433.069386 384.998272 421.898531 399.079808 407.816995 
C 413.161343 393.73546 424.332198 377.017094 431.95307 358.618681 
C 439.573942 340.220268 443.496625 320.499611 443.496625 300.585312 
" clip-path="url(#p4807561137)" style="fill: none; stroke: #b0b0b0; stroke-width: 0.8; stroke-linecap: square"/>
     </g>
     <g id="text_9">
      <text style="font-size: 10px; font-family: 'DejaVu Sans'; text-anchor: start" x="431.95307" y="240.472257" transform="rotate(-0 431.95307 240.472257)">0.6</text>
     </g>
    </g>
    <g id="ytick_4">
     <g id="line2d_10">
      <path d="M 494.046125 300.585312 
C 494.046125 274.032914 488.815882 247.738705 478.654719 223.207488 
C 468.493556 198.676271 453.599083 176.385116 434.823702 157.609736 
C 416.048321 138.834355 393.757167 123.939882 369.22595 113.778719 
C 344.694733 103.617556 318.400523 98.387312 291.848125 98.387312 
C 265.295727 98.387312 239.001517 103.617556 214.4703 113.778719 
C 189.939083 123.939882 167.647929 138.834355 148.872548 157.609736 
C 130.097167 176.385116 115.202694 198.676271 105.041531 223.207488 
C 94.880368 247.738705 89.650125 274.032914 89.650125 300.585312 
C 89.650125 327.137711 94.880368 353.43192 105.041531 377.963137 
C 115.202694 402.494354 130.097167 424.785509 148.872548 443.560889 
C 167.647929 462.33627 189.939083 477.230743 214.4703 487.391906 
C 239.001517 497.553069 265.295727 502.783312 291.848125 502.783312 
C 318.400523 502.783312 344.694733 497.553069 369.22595 487.391906 
C 393.757167 477.230743 416.048321 462.33627 434.823702 443.560889 
C 453.599083 424.785509 468.493556 402.494354 478.654719 377.963137 
C 488.815882 353.43192 494.046125 327.137711 494.046125 300.585312 
" clip-path="url(#p4807561137)" style="fill: none; stroke: #b0b0b0; stroke-width: 0.8; stroke-linecap: square"/>
     </g>
     <g id="text_10">
      <text style="font-size: 10px; font-family: 'DejaVu Sans'; text-anchor: start" x="478.654719" y="221.1278" transform="rotate(-0 478.654719 221.1278)">0.8</text>
     </g>
    </g>
    <g id="ytick_5">
     <g id="line2d_11">
      <path d="M 544.595625 300.585312 
C 544.595625 267.394815 538.057821 234.527053 525.356367 203.863032 
C 512.654914 173.19901 494.036822 145.335067 470.567596 121.865841 
C 447.09837 98.396615 419.234427 79.778524 388.570406 67.07707 
C 357.906384 54.375617 325.038623 47.837812 291.848125 47.837812 
C 258.657627 47.837812 225.789866 54.375617 195.125844 67.07707 
C 164.461823 79.778524 136.59788 98.396615 113.128654 121.865841 
C 89.659428 145.335067 71.041336 173.19901 58.339883 203.863032 
C 45.638429 234.527053 39.100625 267.394815 39.100625 300.585312 
C 39.100625 333.77581 45.638429 366.643572 58.339883 397.307593 
C 71.041336 427.971615 89.659428 455.835558 113.128654 479.304784 
C 136.59788 502.77401 164.461823 521.392101 195.125844 534.093555 
C 225.789866 546.795008 258.657627 553.332812 291.848125 553.332812 
C 325.038623 553.332812 357.906384 546.795008 388.570406 534.093555 
C 419.234427 521.392101 447.09837 502.77401 470.567596 479.304784 
C 494.036822 455.835558 512.654914 427.971615 525.356367 397.307593 
C 538.057821 366.643572 544.595625 333.77581 544.595625 300.585312 
" clip-path="url(#p4807561137)" style="fill: none; stroke: #b0b0b0; stroke-width: 0.8; stroke-linecap: square"/>
     </g>
     <g id="text_11">
      <text style="font-size: 10px; font-family: 'DejaVu Sans'; text-anchor: start" x="525.356367" y="201.783344" transform="rotate(-0 525.356367 201.783344)">1.0</text>
     </g>
    </g>
   </g>
   <g id="line2d_12">
    <path d="M 503.428638 300.585312 
L 339.332123 218.340615 
L 260.820863 246.844519 
L 89.618152 300.585312 
L 200.14968 459.411678 
L 339.057501 382.35435 
L 503.428638 300.585312 
" clip-path="url(#p4807561137)" style="fill: none; stroke: #e74c3c; stroke-width: 3; stroke-linecap: square"/>
    <defs>
     <path id="md158bef664" d="M 0 3 
C 0.795609 3 1.55874 2.683901 2.12132 2.12132 
C 2.683901 1.55874 3 0.795609 3 0 
C 3 -0.795609 2.683901 -1.55874 2.12132 -2.12132 
C 1.55874 -2.683901 0.795609 -3 0 -3 
C -0.795609 -3 -1.55874 -2.683901 -2.12132 -2.12132 
C -2.683901 -1.55874 -3 -0.795609 -3 0 
C -3 0.795609 -2.683901 1.55874 -2.12132 2.12132 
C -1.55874 2.683901 -0.795609 3 0 3 
z
" style="stroke: #e74c3c"/>
    </defs>
    <g clip-path="url(#p4807561137)">
     <use xlink:href="#md158bef664" x="503.428638" y="300.585312" style="fill: #e74c3c; stroke: #e74c3c"/>
     <use xlink:href="#md158bef664" x="339.332123" y="218.340615" style="fill: #e74c3c; stroke: #e74c3c"/>
     <use xlink:href="#md158bef664" x="260.820863" y="246.844519" style="fill: #e74c3c; stroke: #e74c3c"/>
     <use xlink:href="#md158bef664" x="89.618152" y="300.585312" style="fill: #e74c3c; stroke: #e74c3c"/>
     <use xlink:href="#md158bef664" x="200.14968" y="459.411678" style="fill: #e74c3c; stroke: #e74c3c"/>
     <use xlink:href="#md158bef664" x="339.057501" y="382.35435" style="fill: #e74c3c; stroke: #e74c3c"/>
     <use xlink:href="#md158bef664" x="503.428638" y="300.585312" style="fill: #e74c3c; stroke: #e74c3c"/>
    </g>
   </g>
   <g id="line2d_13">
    <path d="M 503.336269 300.585312 
L 344.93942 208.628492 
L 251.875368 231.350466 
L 133.794344 300.585312 
L 187.98995 480.472949 
L 338.943117 382.156232 
L 503.336269 300.585312 
" clip-path="url(#p4807561137)" style="fill: none; stroke: #3498db; stroke-width: 3; stroke-linecap: square"/>
    <defs>
     <path id="me09a6459f5" d="M 0 3 
C 0.795609 3 1.55874 2.683901 2.12132 2.12132 
C 2.683901 1.55874 3 0.795609 3 0 
C 3 -0.795609 2.683901 -1.55874 2.12132 -2.12132 
C 1.55874 -2.683901 0.795609 -3 0 -3 
C -0.795609 -3 -1.55874 -2.683901 -2.12132 -2.12132 
C -2.683901 -1.55874 -3 -0.795609 -3 0 
C -3 0.795609 -2.683901 1.55874 -2.12132 2.12132 
C -1.55874 2.683901 -0.795609 3 0 3 
z
" style="stroke: #3498db"/>
    </defs>
    <g clip-path="url(#p4807561137)">
     <use xlink:href="#me09a6459f5" x="503.336269" y="300.585312" style="fill: #3498db; stroke: #3498db"/>
     <use xlink:href="#me09a6459f5" x="344.93942" y="208.628492" style="fill: #3498db; stroke: #3498db"/>
     <use xlink:href="#me09a6459f5" x="251.875368" y="231.350466" style="fill: #3498db; stroke: #3498db"/>
     <use xlink:href="#me09a6459f5" x="133.794344" y="300.585312" style="fill: #3498db; stroke: #3498db"/>
     <use xlink:href="#me09a6459f5" x="187.98995" y="480.472949" style="fill: #3498db; stroke: #3498db"/>
     <use xlink:href="#me09a6459f5" x="338.943117" y="382.156232" style="fill: #3498db; stroke: #3498db"/>
     <use xlink:href="#me09a6459f5" x="503.336269" y="300.585312" style="fill: #3498db; stroke: #3498db"/>
    </g>
   </g>
   <g id="patch_5">
    <path d="M 544.595625 300.585312 
C 544.595625 267.394815 538.057821 234.527053 525.356367 203.863032 
C 512.654914 173.19901 494.036822 145.335067 470.567596 121.865841 
C 447.09837 98.396615 419.234427 79.778524 388.570406 67.07707 
C 357.906384 54.375617 325.038623 47.837812 291.848125 47.837812 
C 258.657627 47.837812 225.789866 54.375617 195.125844 67.07707 
C 164.461823 79.778524 136.59788 98.396615 113.128654 121.865841 
C 89.659428 145.335067 71.041336 173.19901 58.339883 203.863032 
C 45.638429 234.527053 39.100625 267.394815 39.100625 300.585312 
C 39.100625 333.77581 45.638429 366.643572 58.339883 397.307593 
C 71.041336 427.971615 89.659428 455.835558 113.128654 479.304784 
C 136.59788 502.77401 164.461823 521.392101 195.125844 534.093555 
C 225.789866 546.795008 258.657627 553.332812 291.848125 553.332812 
C 325.038623 553.332812 357.906384 546.795008 388.570406 534.093555 
C 419.234427 521.392101 447.09837 502.77401 470.567596 479.304784 
C 494.036822 455.835558 512.654914 427.971615 525.356367 397.307593 
C 538.057821 366.643572 544.595625 333.77581 544.595625 300.585312 
" style="fill: none; stroke: #000000; stroke-width: 0.8; stroke-linejoin: miter; stroke-linecap: square"/>
   </g>
   <g id="text_12">
    <text style="font-weight: 700; font-size: 14px; font-family: 'DejaVu Sans'; text-anchor: middle" x="291.848125" y="17.837812" transform="rotate(-0 291.848125 17.837812)">Comprehensive Model Comparison: Ensemble vs Best Individual</text>
   </g>
   <g id="legend_1">
    <g id="patch_6">
     <path d="M 489.604125 92.665312 
L 687.844125 92.665312 
Q 690.244125 92.665312 690.244125 90.265312 
L 690.244125 56.237812 
Q 690.244125 53.837812 687.844125 53.837812 
L 489.604125 53.837812 
Q 487.204125 53.837812 487.204125 56.237812 
L 487.204125 90.265312 
Q 487.204125 92.665312 489.604125 92.665312 
z
" style="fill: #ffffff; opacity: 0.8; stroke: #cccccc; stroke-linejoin: miter"/>
    </g>
    <g id="line2d_14">
     <path d="M 492.004125 63.555937 
L 504.004125 63.555937 
L 516.004125 63.555937 
" style="fill: none; stroke: #e74c3c; stroke-width: 3; stroke-linecap: square"/>
     <g>
      <use xlink:href="#md158bef664" x="504.004125" y="63.555937" style="fill: #e74c3c; stroke: #e74c3c"/>
     </g>
    </g>
    <g id="text_13">
     <text style="font-size: 12px; font-family: 'DejaVu Sans'; text-anchor: start" x="525.604125" y="67.755937" transform="rotate(-0 525.604125 67.755937)">Ensemble</text>
    </g>
    <g id="line2d_15">
     <path d="M 492.004125 81.169687 
L 504.004125 81.169687 
L 516.004125 81.169687 
" style="fill: none; stroke: #3498db; stroke-width: 3; stroke-linecap: square"/>
     <g>
      <use xlink:href="#me09a6459f5" x="504.004125" y="81.169687" style="fill: #3498db; stroke: #3498db"/>
     </g>
    </g>
    <g id="text_14">
     <text style="font-size: 12px; font-family: 'DejaVu Sans'; text-anchor: start" x="525.604125" y="85.369687" transform="rotate(-0 525.604125 85.369687)">LightGBM (Best Individual)</text>
    </g>
   </g>
  </g>
 </g>
 <defs>
  <clipPath id="p4807561137">
   <path d="M 544.595625 300.585312 
C 544.595625 267.394815 538.057821 234.527053 525.356367 203.863032 
C 512.654914 173.19901 494.036822 145.335067 470.567596 121.865841 
C 447.09837 98.396615 419.234427 79.778524 388.570406 67.07707 
C 357.906384 54.375617 325.038623 47.837812 291.848125 47.837812 
C 258.657627 47.837812 225.789866 54.375617 195.125844 67.07707 
C 164.461823 79.778524 136.59788 98.396615 113.128654 121.865841 
C 89.659428 145.335067 71.041336 173.19901 58.339883 203.863032 
C 45.638429 234.527053 39.100625 267.394815 39.100625 300.585312 
C 39.100625 333.77581 45.638429 366.643572 58.339883 397.307593 
C 71.041336 427.971615 89.659428 455.835558 113.128654 479.304784 
C 136.59788 502.77401 164.461823 521.392101 195.125844 534.093555 
C 225.789866 546.795008 258.657627 553.332812 291.848125 553.332812 
C 325.038623 553.332812 357.906384 546.795008 388.570406 534.093555 
C 419.234427 521.392101 447.09837 502.77401 470.567596 479.304784 
C 494.036822 455.835558 512.654914 427.971615 525.356367 397.307593 
C 538.057821 366.643572 544.595625 333.77581 544.595625 300.585312 
M 291.848125 300.585312 
C 291.848125 300.585312 291.848125 300.585312 291.848125 300.585312 
C 291.848125 300.585312 291.848125 300.585312 291.848125 300.585312 
C 291.848125 300.585312 291.848125 300.585312 291.848125 300.585312 
C 291.848125 300.585312 291.848125 300.585312 291.848125 300.585312 
C 291.848125 300.585312 291.848125 300.585312 291.848125 300.585312 
C 291.848125 300.585312 291.848125 300.585312 291.848125 300.585312 
C 291.848125 300.585312 291.848125 300.585312 291.848125 300.585312 
C 291.848125 300.585312 291.848125 300.585312 291.848125 300.585312 
C 291.848125 300.585312 291.848125 300.585312 291.848125 300.585312 
C 291.848125 300.585312 291.848125 300.585312 291.848125 300.585312 
C 291.848125 300.585312 291.848125 300.585312 291.848125 300.585312 
C 291.848125 300.585312 291.848125 300.585312 291.848125 300.585312 
C 291.848125 300.585312 291.848125 300.585312 291.848125 300.585312 
C 291.848125 300.585312 291.848125 300.585312 291.848125 300.585312 
C 291.848125 300.585312 291.848125 300.585312 291.848125 300.585312 
C 291.848125 300.585312 291.848125 300.585312 291.848125 300.585312 
z
"/>
  </clipPath>
 </defs>
</svg>
